<svg width="193" height="159" viewBox="0 0 193 159" fill="none" xmlns="http://www.w3.org/2000/svg">
<g clip-path="url(#clip0_1958_6585)">
<path d="M171.393 114.54C171.393 114.54 165.58 124.265 162.124 132.521C158.668 140.777 155.766 140.043 148.215 139.79C148.215 139.79 153.196 141.88 152.444 144.3C151.692 146.719 144.896 147.009 138.016 145.552C138.016 145.552 143.145 149.73 142.147 151.701C141.148 153.673 115.484 151.072 106.109 158.257C106.109 158.257 113.051 132.712 117.76 127.188C122.468 121.663 122.361 127.984 122.361 127.984C122.361 127.984 130.21 115.297 135.866 114.677C141.521 114.057 140.143 119.577 140.143 119.577C140.143 119.577 148.065 110.357 171.393 114.54Z" fill="#A1CF99"/>
<path d="M106.109 158.449C106.068 158.449 106.028 158.436 105.993 158.411C105.909 158.347 105.892 158.226 105.956 158.14C111.642 150.592 118.161 143.777 125.331 137.886C131.067 133.173 137.231 129.036 143.65 125.592C154.583 119.725 162.581 117.878 162.662 117.86C162.765 117.837 162.868 117.902 162.891 118.007C162.914 118.11 162.85 118.214 162.745 118.237C162.666 118.255 154.708 120.094 143.818 125.94C133.768 131.334 119.095 141.339 106.263 158.374C106.225 158.424 106.168 158.45 106.109 158.45V158.449Z" fill="#133F3F"/>
<path d="M156.423 127.723C156.412 127.723 156.402 127.723 156.391 127.72L144.259 125.659C144.193 125.647 144.137 125.601 144.112 125.538C144.088 125.474 144.098 125.403 144.14 125.35L149.331 118.723C149.396 118.639 149.517 118.625 149.601 118.691C149.685 118.757 149.699 118.878 149.633 118.962L144.643 125.333L156.455 127.34C156.56 127.358 156.631 127.458 156.613 127.562C156.598 127.657 156.516 127.723 156.424 127.723H156.423Z" fill="#133F3F"/>
<path d="M142.984 134.483C142.977 134.483 142.972 134.483 142.965 134.483L131.738 133.403C131.675 133.397 131.62 133.36 131.588 133.306C131.557 133.25 131.555 133.184 131.583 133.127L135.701 124.609C135.747 124.512 135.862 124.473 135.958 124.519C136.054 124.565 136.094 124.681 136.048 124.777L132.051 133.046L143.003 134.099C143.109 134.109 143.187 134.203 143.176 134.309C143.167 134.409 143.083 134.483 142.985 134.483L142.984 134.483Z" fill="#133F3F"/>
<path d="M130.738 144.171C130.71 144.171 130.682 144.165 130.655 144.153C130.227 143.962 123.946 143.448 119.828 143.149C119.766 143.145 119.711 143.111 119.679 143.059C119.646 143.006 119.641 142.941 119.664 142.884L123.84 132.591C123.88 132.492 123.992 132.445 124.091 132.484C124.19 132.524 124.237 132.637 124.197 132.736L120.121 142.783C121.968 142.919 130.274 143.541 130.822 143.804C130.918 143.85 130.958 143.965 130.912 144.061C130.879 144.131 130.811 144.17 130.739 144.17L130.738 144.171Z" fill="#133F3F"/>
<path d="M0 63.7705C0 63.7705 4.53496 80.98 6.15425 94.9416C7.77355 108.903 12.4691 109.066 23.9665 111.988C23.9665 111.988 15.5462 112.962 15.6265 116.94C15.7076 120.918 25.8285 124.326 36.8397 125.139C36.8397 125.139 27.2854 129.197 27.934 132.607C28.5818 136.015 68.4174 143.321 79.4286 158.257C79.4286 158.257 80.0773 116.696 75.3808 106.306C70.6844 95.9148 68.0935 105.494 68.0935 105.494C68.0935 105.494 61.7787 82.9272 53.5199 79.5175C45.261 76.1087 44.9371 85.0372 44.9371 85.0372C44.9371 85.0372 37.0021 67.6659 0 63.7705Z" fill="#D0E7CC"/>
<path d="M79.4287 158.45C79.3512 158.45 79.2783 158.403 79.2488 158.326C67.2992 126.994 49.5072 105.469 36.6857 92.9287C22.7975 79.3454 11.5972 73.093 11.4855 73.0311C11.3923 72.9793 11.3582 72.8627 11.4099 72.7693C11.4606 72.6759 11.5778 72.6416 11.671 72.6934C11.7826 72.7554 23.0282 79.0327 36.9542 92.653C45.1309 100.65 52.6212 109.579 59.2165 119.191C67.4606 131.204 74.3207 144.326 79.6086 158.189C79.6464 158.289 79.5966 158.4 79.4979 158.438C79.4748 158.447 79.4517 158.451 79.4296 158.451L79.4287 158.45Z" fill="#133F3F"/>
<path d="M36.1152 92.2978C36.1079 92.2978 36.1005 92.2978 36.0931 92.2969L16.9005 90.0999C16.7953 90.0879 16.7187 89.9926 16.7307 89.8863C16.7427 89.7808 16.8378 89.7031 16.9439 89.717L35.8154 91.877L30.9935 79.9143C30.9538 79.8153 31.0008 79.7034 31.0996 79.6636C31.1983 79.6239 31.3099 79.671 31.3496 79.77L36.2924 92.0333C36.3182 92.0962 36.3081 92.1683 36.2675 92.222C36.2306 92.2701 36.1743 92.2978 36.1143 92.2978H36.1152Z" fill="#133F3F"/>
<path d="M51.6515 109.457C51.6395 109.457 51.6275 109.456 51.6155 109.454L34.2138 106.17C34.1096 106.15 34.0404 106.05 34.0607 105.945C34.08 105.84 34.1806 105.772 34.2849 105.791L51.4144 109.024L48.9582 94.6502C48.9407 94.5448 49.0108 94.4458 49.1151 94.4273C49.2193 94.4088 49.319 94.48 49.3374 94.5846L51.8406 109.233C51.8517 109.295 51.8305 109.358 51.7862 109.403C51.7502 109.439 51.7013 109.458 51.6515 109.458V109.457Z" fill="#133F3F"/>
<path d="M65.377 129.368C65.3641 129.368 65.3503 129.367 65.3374 129.363C58.958 128.004 49.2182 126.023 48.5317 126.141C48.4275 126.158 48.3278 126.087 48.3103 125.982C48.2927 125.877 48.3638 125.778 48.468 125.76C49.4073 125.604 62.6468 128.399 65.1584 128.931L63.3684 111.846C63.3573 111.739 63.4339 111.645 63.54 111.634C63.6452 111.623 63.7402 111.7 63.7513 111.806L65.5689 129.155C65.5754 129.216 65.5523 129.277 65.5062 129.319C65.4702 129.351 65.425 129.369 65.378 129.369L65.377 129.368Z" fill="#133F3F"/>
<path d="M23.8657 132.702C23.8657 132.702 32.1421 139.904 37.8064 146.466C43.4708 153.027 45.9242 151.475 52.8036 148.961C52.8036 148.961 48.8435 152.391 50.2635 154.393C51.6835 156.395 58.0297 154.61 63.9302 151.189C63.9302 151.189 60.4609 156.587 61.9723 158.102C63.4845 159.616 86.3457 149.47 97.1401 153.257C97.1401 153.257 83.0702 131.821 77.0728 128.154C71.0763 124.487 73.073 130.278 73.073 130.278C73.073 130.278 62.0304 120.961 56.6346 122.098C51.2388 123.234 54.1674 127.904 54.1674 127.904C54.1674 127.904 44.0982 121.802 23.8657 132.702Z" fill="#A1CF99"/>
<path d="M97.1403 153.451C97.1025 153.451 97.0637 153.439 97.0305 153.416C80.0864 141.596 63.5585 136.811 52.6774 134.878C40.8921 132.784 33.0207 133.493 32.9423 133.5C32.8362 133.509 32.743 133.433 32.7328 133.326C32.7227 133.22 32.8002 133.126 32.9063 133.116C32.9847 133.109 40.9087 132.396 52.7448 134.498C59.6934 135.732 66.6144 137.681 73.3149 140.292C81.6901 143.554 89.7432 147.863 97.2501 153.1C97.3377 153.161 97.359 153.281 97.2981 153.368C97.2602 153.422 97.2012 153.451 97.1403 153.451Z" fill="#133F3F"/>
<path d="M41.5582 140.339C41.489 140.339 41.4225 140.301 41.3875 140.235C41.3376 140.141 41.3745 140.024 41.4687 139.975L51.739 134.562L45.2359 130.205C45.1474 130.146 45.1243 130.027 45.1834 129.938C45.2424 129.849 45.3614 129.826 45.45 129.884L52.2215 134.421C52.2778 134.459 52.3101 134.524 52.3064 134.592C52.3027 134.659 52.264 134.72 52.204 134.753L41.6477 140.316C41.6191 140.331 41.5886 140.338 41.5582 140.338V140.339Z" fill="#133F3F"/>
<path d="M55.9707 142.507C55.8968 142.507 55.8258 142.464 55.7944 142.392C55.752 142.295 55.7963 142.181 55.8941 142.137L65.6588 137.864L59.4971 131.46C59.4233 131.383 59.4252 131.261 59.5017 131.187C59.5783 131.113 59.7001 131.114 59.7739 131.191L66.1275 137.795C66.1708 137.84 66.1902 137.904 66.1773 137.966C66.1653 138.028 66.1238 138.08 66.0657 138.105L56.0472 142.49C56.0223 142.501 55.9965 142.505 55.9707 142.505V142.507Z" fill="#133F3F"/>
<path d="M70.1631 147.731C70.1114 147.731 70.0598 147.711 70.0229 147.67C69.9518 147.593 69.9527 147.474 70.0293 147.402C70.4528 146.996 77.5814 144.05 79.5753 143.231L72.8066 135.212C72.7383 135.131 72.7485 135.01 72.8287 134.94C72.9099 134.872 73.0308 134.882 73.1 134.964L80.0394 143.184C80.0791 143.232 80.0939 143.294 80.0791 143.355C80.0644 143.415 80.0219 143.464 79.9647 143.487C76.2639 145.005 70.6337 147.375 70.2941 147.68C70.2572 147.713 70.2102 147.73 70.1631 147.73V147.731Z" fill="#133F3F"/>
<path d="M59.7154 67.8481C59.6905 67.8481 59.6647 67.8435 59.6407 67.8324C59.6296 67.8278 59.3731 67.7186 58.9275 67.5049C58.8315 67.4587 58.7909 67.344 58.837 67.2478C58.8832 67.1516 58.9976 67.1109 59.0935 67.1571C59.53 67.3662 59.7874 67.4763 59.7902 67.4772C59.888 67.5188 59.9341 67.6317 59.8926 67.7297C59.8612 67.8037 59.7902 67.8472 59.7154 67.8472V67.8481ZM57.9762 67.0054C57.9457 67.0054 57.9162 66.998 57.8876 66.9832C57.6616 66.8648 57.4309 66.7408 57.2048 66.616C57.1116 66.5651 57.0775 66.4476 57.1292 66.3542C57.1799 66.2607 57.2971 66.2265 57.3903 66.2783C57.6145 66.4023 57.8424 66.5244 58.0666 66.6419C58.1607 66.6909 58.1976 66.8074 58.1478 66.9018C58.1137 66.9675 58.0463 67.0054 57.9771 67.0054H57.9762ZM56.2923 66.0665C56.2591 66.0665 56.2249 66.0582 56.1945 66.0397C55.9721 65.9083 55.7488 65.7733 55.532 65.6382C55.4416 65.5818 55.4139 65.4634 55.4693 65.3727C55.5256 65.2821 55.6437 65.2543 55.7341 65.3098C55.9491 65.443 56.1696 65.5771 56.3901 65.7076C56.4814 65.7612 56.5119 65.8796 56.4584 65.9721C56.4224 66.0332 56.3587 66.0674 56.2923 66.0674V66.0665ZM54.6601 65.0415C54.6232 65.0415 54.5863 65.0314 54.554 65.0092C54.339 64.8658 54.124 64.7196 53.9136 64.5725C53.8269 64.5115 53.8048 64.3912 53.8657 64.3043C53.9266 64.2173 54.0465 64.1951 54.1332 64.2562C54.3408 64.4014 54.554 64.5466 54.7662 64.6882C54.8548 64.7474 54.8788 64.8667 54.8197 64.9555C54.7828 65.011 54.7219 65.0415 54.6592 65.0415H54.6601ZM53.0878 63.9278C53.0472 63.9278 53.0066 63.9148 52.9725 63.8889C52.7649 63.7326 52.5591 63.5726 52.3598 63.4144C52.2768 63.3478 52.263 63.2266 52.3285 63.1434C52.3949 63.0601 52.5158 63.0462 52.5988 63.1119C52.7954 63.2682 52.9993 63.4264 53.2041 63.5809C53.289 63.6447 53.3056 63.7659 53.2419 63.851C53.2041 63.901 53.1469 63.9278 53.0878 63.9278ZM51.5894 62.7178C51.5451 62.7178 51.4999 62.7021 51.4639 62.6707C51.2665 62.4995 51.0718 62.3256 50.8854 62.1536C50.807 62.0814 50.8024 61.9593 50.8734 61.8807C50.9454 61.8021 51.0672 61.7974 51.1456 61.8687C51.3301 62.0379 51.5221 62.2091 51.7158 62.3774C51.7961 62.4468 51.8053 62.5689 51.7352 62.6494C51.6974 62.6938 51.6439 62.716 51.5894 62.716V62.7178ZM50.1842 61.4015C50.1344 61.4015 50.0845 61.3821 50.0476 61.3442C49.8649 61.1582 49.685 60.9686 49.5134 60.7808C49.4414 60.7022 49.447 60.5801 49.5254 60.5079C49.6038 60.4358 49.7256 60.4413 49.7976 60.5199C49.9655 60.704 50.1427 60.89 50.3226 61.0731C50.3973 61.149 50.3964 61.2711 50.3207 61.346C50.2829 61.383 50.234 61.4015 50.186 61.4015H50.1842ZM48.9007 59.9677C48.8445 59.9677 48.7891 59.9436 48.7513 59.8965C48.5861 59.693 48.4256 59.4848 48.2742 59.2804C48.2106 59.1944 48.229 59.0741 48.3139 59.0103C48.3988 58.9474 48.5197 58.9649 48.5833 59.05C48.7319 59.2508 48.8887 59.4534 49.0502 59.6532C49.1176 59.7355 49.1046 59.8576 49.0216 59.9242C48.9856 59.9529 48.9432 59.9677 48.9007 59.9677ZM47.776 58.4034C47.7123 58.4034 47.6496 58.372 47.6136 58.3137C47.4734 58.0917 47.3396 57.866 47.215 57.6421C47.1633 57.5487 47.1966 57.4312 47.2888 57.3794C47.3811 57.3276 47.4983 57.3609 47.5509 57.4534C47.6717 57.6708 47.8028 57.891 47.9393 58.1074C47.9956 58.1972 47.9688 58.3165 47.8793 58.3738C47.847 58.3942 47.812 58.4034 47.7769 58.4034H47.776ZM46.8653 56.7078C46.7915 56.7078 46.7214 56.6653 46.6891 56.5931C46.583 56.3536 46.4833 56.1103 46.3947 55.8698C46.3578 55.7699 46.4086 55.6588 46.5082 55.6218C46.6079 55.5848 46.7186 55.6357 46.7555 55.7356C46.8413 55.9687 46.9373 56.2037 47.0406 56.4359C47.084 56.533 47.0406 56.6468 46.9437 56.6903C46.9179 56.7014 46.8921 56.7069 46.8653 56.7069V56.7078ZM46.2314 54.8948C46.1456 54.8948 46.0672 54.8365 46.0451 54.7495C45.9805 54.4961 45.9251 54.2389 45.8799 53.9836C45.8614 53.8791 45.9306 53.7782 46.0358 53.7597C46.141 53.7412 46.2407 53.8106 46.2591 53.9161C46.3025 54.1612 46.356 54.4091 46.4187 54.6533C46.4446 54.7569 46.3827 54.8615 46.2794 54.8883C46.2637 54.892 46.2471 54.8938 46.2314 54.8938V54.8948ZM45.9325 52.9984C45.8319 52.9984 45.747 52.9198 45.7406 52.8171C45.7276 52.609 45.7212 52.3981 45.7212 52.1899C45.7212 52.1381 45.7212 52.0854 45.7221 52.0327C45.724 51.9263 45.8079 51.844 45.9177 51.8431C46.0238 51.8449 46.1087 51.9319 46.1069 52.0392C46.1069 52.09 46.1059 52.14 46.1059 52.1899C46.1059 52.3907 46.1124 52.5933 46.1244 52.794C46.1309 52.9004 46.0506 52.992 45.9445 52.9984C45.9408 52.9984 45.9362 52.9984 45.9325 52.9984ZM45.9989 51.0762C45.9906 51.0762 45.9823 51.0762 45.974 51.0743C45.8688 51.0605 45.7941 50.9643 45.8079 50.8579C45.8411 50.6017 45.8845 50.3408 45.9371 50.0846C45.9583 49.98 46.0607 49.9125 46.1641 49.9338C46.2683 49.955 46.3357 50.0568 46.3145 50.1613C46.2637 50.4092 46.2222 50.6599 46.1899 50.9078C46.177 51.005 46.0949 51.0762 45.9989 51.0762ZM46.4141 49.1974C46.3947 49.1974 46.3754 49.1947 46.3569 49.1882C46.2554 49.1567 46.1991 49.0485 46.2305 48.9468C46.3071 48.7016 46.3929 48.4537 46.487 48.2076C46.5248 48.1077 46.6365 48.0587 46.7352 48.0966C46.8349 48.1346 46.8838 48.2465 46.8459 48.3455C46.7546 48.5832 46.6715 48.8246 46.5968 49.0615C46.571 49.1438 46.4953 49.1965 46.4132 49.1965L46.4141 49.1974ZM56.9234 47.7312C56.8228 47.7312 56.738 47.6526 56.7315 47.5509C56.7241 47.4445 56.8044 47.3529 56.9105 47.3455C57.1679 47.3289 57.4014 47.2808 57.6053 47.203C57.7049 47.1651 57.8156 47.2151 57.8535 47.315C57.8913 47.4149 57.8415 47.5259 57.7418 47.5638C57.5029 47.6545 57.2316 47.7109 56.9363 47.7303C56.9317 47.7303 56.928 47.7303 56.9234 47.7303V47.7312ZM55.7774 47.635C55.7636 47.635 55.7498 47.6332 55.7368 47.6304C55.4831 47.5749 55.2266 47.4991 54.9738 47.4038C54.8741 47.3668 54.8243 47.2549 54.8612 47.1559C54.8981 47.056 55.0089 47.0051 55.1085 47.043C55.3438 47.1318 55.5828 47.2021 55.819 47.2539C55.9223 47.2761 55.9887 47.3788 55.9657 47.4833C55.9463 47.574 55.866 47.635 55.7774 47.635ZM47.1172 47.4066C47.0904 47.4066 47.0637 47.401 47.0369 47.389C46.94 47.3446 46.8976 47.2299 46.9419 47.1337C47.0508 46.8941 47.1633 46.6582 47.2768 46.4325C47.3248 46.3372 47.4401 46.2993 47.5352 46.3465C47.6302 46.3946 47.668 46.5102 47.621 46.6055C47.5103 46.8275 47.3995 47.0587 47.2925 47.2937C47.2602 47.3649 47.1901 47.4066 47.1172 47.4066ZM54.0078 46.9061C53.9736 46.9061 53.9385 46.8969 53.9063 46.8774C53.682 46.7378 53.4652 46.5823 53.2604 46.4158C53.1783 46.3483 53.1653 46.2271 53.2327 46.1448C53.3001 46.0625 53.4209 46.0495 53.503 46.117C53.694 46.2734 53.898 46.4186 54.1083 46.55C54.1987 46.6064 54.2264 46.7248 54.1701 46.8155C54.1342 46.8747 54.0705 46.907 54.0068 46.907L54.0078 46.9061ZM58.5086 46.8266C58.4837 46.8266 58.4578 46.8219 58.4329 46.8108C58.3351 46.7692 58.2899 46.6554 58.3314 46.5574C58.4246 46.3391 58.4883 46.1069 58.5206 45.8664C58.5344 45.7609 58.6322 45.6869 58.7374 45.7008C58.8426 45.7147 58.9164 45.8118 58.9026 45.9182C58.8656 46.1929 58.7928 46.4593 58.6857 46.7091C58.6543 46.7822 58.5833 46.8266 58.5086 46.8266ZM47.9974 45.6952C47.9642 45.6952 47.931 45.6869 47.9006 45.6693C47.8092 45.6157 47.7778 45.4973 47.8314 45.4057C47.9642 45.1772 48.1017 44.9533 48.2392 44.7415C48.2973 44.6527 48.4163 44.6268 48.5058 44.6851C48.5944 44.7434 48.6202 44.8627 48.5621 44.9524C48.4274 45.1587 48.2936 45.377 48.1644 45.6C48.1285 45.661 48.0639 45.6952 47.9984 45.6952H47.9974ZM52.5665 45.6453C52.5112 45.6453 52.4558 45.6212 52.418 45.575C52.2501 45.3705 52.0941 45.1522 51.9557 44.9284C51.8994 44.8377 51.928 44.7193 52.0185 44.6629C52.1089 44.6074 52.227 44.6351 52.2833 44.7258C52.4124 44.9358 52.5582 45.1393 52.7151 45.3308C52.7824 45.4131 52.7704 45.5343 52.6892 45.6027C52.6533 45.6323 52.6099 45.6471 52.5675 45.6471L52.5665 45.6453ZM58.659 44.9367C58.5704 44.9367 58.4901 44.8747 58.4707 44.7841C58.4209 44.5519 58.3453 44.3169 58.2474 44.0866C58.2059 43.9885 58.2511 43.8757 58.3489 43.8331C58.4468 43.7915 58.5593 43.8368 58.6018 43.9349C58.7088 44.1874 58.7918 44.4464 58.8472 44.7027C58.8693 44.8072 58.8038 44.9089 58.6996 44.9321C58.6857 44.9348 58.6719 44.9367 58.659 44.9367ZM49.0705 44.0986C49.029 44.0986 48.9875 44.0857 48.9515 44.057C48.8675 43.9913 48.8537 43.8701 48.9192 43.7859C49.0834 43.576 49.2532 43.3743 49.423 43.1865C49.494 43.1079 49.6158 43.1014 49.6942 43.1726C49.7727 43.2439 49.7791 43.366 49.7072 43.4455C49.5438 43.6268 49.3796 43.8211 49.2209 44.0237C49.1831 44.0718 49.1268 44.0977 49.0696 44.0977L49.0705 44.0986ZM51.6162 43.9821C51.5377 43.9821 51.4639 43.934 51.4353 43.8553C51.3449 43.6093 51.2692 43.353 51.2111 43.094C51.1871 42.9904 51.2526 42.8868 51.356 42.8628C51.4593 42.8396 51.5627 42.9044 51.5866 43.008C51.642 43.2513 51.7131 43.4918 51.797 43.7221C51.8339 43.822 51.7823 43.933 51.6826 43.97C51.6605 43.9784 51.6383 43.9821 51.6162 43.9821ZM57.8452 43.2078C57.787 43.2078 57.7298 43.1819 57.692 43.1319C57.5444 42.9368 57.3792 42.7499 57.2021 42.5778C57.1255 42.5038 57.1236 42.3817 57.1984 42.305C57.2722 42.2282 57.394 42.2263 57.4706 42.3013C57.6616 42.4872 57.8396 42.6888 57.9992 42.8998C58.0638 42.9849 58.0472 43.106 57.9623 43.1699C57.9273 43.1967 57.8867 43.2087 57.8461 43.2087L57.8452 43.2078ZM50.3899 42.7027C50.3355 42.7027 50.282 42.6796 50.2432 42.6352C50.174 42.5538 50.1842 42.4326 50.2645 42.3632C50.4684 42.1884 50.6787 42.0265 50.8891 41.8813C50.938 41.848 50.9971 41.8397 51.0497 41.8545C51.046 41.7592 51.0441 41.663 51.0441 41.5668C51.0441 41.4225 51.0487 41.2745 51.057 41.1265C51.0626 41.0201 51.1539 40.9387 51.26 40.9451C51.3661 40.9507 51.4473 41.0423 51.4409 41.1487C51.4326 41.2893 51.4289 41.4299 51.4289 41.5668C51.4289 41.6778 51.4316 41.7888 51.4362 41.8979C51.4409 42.0043 51.3597 42.095 51.2536 42.0996C51.2286 42.1014 51.2056 42.0977 51.1834 42.0903C51.1724 42.1329 51.1456 42.1727 51.1069 42.1995C50.9076 42.3373 50.7083 42.4909 50.5145 42.6565C50.4785 42.6879 50.4342 42.7027 50.3899 42.7027ZM56.4242 41.9266C56.3901 41.9266 56.356 41.9174 56.3246 41.8989C56.1133 41.7703 55.8909 41.6593 55.6649 41.5668C55.5662 41.527 55.5191 41.4141 55.5597 41.3152C55.5994 41.2162 55.7119 41.169 55.8107 41.2097C56.0552 41.3096 56.2951 41.4308 56.5239 41.5695C56.6152 41.6251 56.6438 41.7435 56.5894 41.8341C56.5534 41.8942 56.4898 41.9275 56.4242 41.9275V41.9266ZM52.0019 41.6685C51.928 41.6685 51.8579 41.626 51.8256 41.5538C51.7832 41.4567 51.8265 41.3429 51.9243 41.2994C52.1707 41.1903 52.4226 41.0996 52.6736 41.0302C52.776 41.0016 52.8821 41.0617 52.9098 41.1644C52.9384 41.2671 52.8784 41.3734 52.776 41.4012C52.5435 41.4659 52.3091 41.5501 52.0803 41.651C52.0554 41.6621 52.0286 41.6676 52.0028 41.6676L52.0019 41.6685ZM54.6278 41.2791C54.6186 41.2791 54.6093 41.2791 54.601 41.2772C54.3584 41.243 54.1139 41.2291 53.8666 41.2356C53.7605 41.2384 53.6719 41.1542 53.6691 41.0478C53.6664 40.9414 53.7503 40.8526 53.8564 40.8499C54.124 40.8425 54.3916 40.8573 54.6545 40.8952C54.7597 40.91 54.8326 41.008 54.8179 41.1135C54.804 41.2097 54.7219 41.2791 54.6278 41.2791ZM51.3938 40.1857C51.3818 40.1857 51.3698 40.1848 51.3569 40.182C51.2526 40.1616 51.1844 40.0608 51.2047 39.9563C51.2526 39.7056 51.3126 39.4494 51.3827 39.1931C51.4104 39.0904 51.5165 39.0303 51.6189 39.0581C51.7214 39.0858 51.7813 39.1922 51.7536 39.2949C51.6863 39.5419 51.6282 39.7888 51.582 40.0294C51.5645 40.1219 51.4833 40.1857 51.3938 40.1857ZM51.928 38.3402C51.905 38.3402 51.8819 38.3365 51.8598 38.3273C51.7601 38.2894 51.7112 38.1774 51.749 38.0784C51.8395 37.8416 51.9391 37.5983 52.0471 37.3578C52.0904 37.2607 52.2039 37.2172 52.3008 37.2607C52.3977 37.3042 52.441 37.418 52.3977 37.5151C52.2934 37.7501 52.1956 37.9859 52.108 38.2163C52.0784 38.2931 52.0055 38.3402 51.928 38.3402ZM52.7298 36.5928C52.6994 36.5928 52.668 36.5854 52.6394 36.5697C52.5453 36.5197 52.5102 36.4023 52.561 36.3088C52.68 36.085 52.8083 35.8574 52.9411 35.6308C52.9947 35.5392 53.1128 35.5087 53.2041 35.5623C53.2954 35.616 53.3259 35.7344 53.2724 35.826C53.1423 36.048 53.0168 36.2709 52.8996 36.4901C52.8646 36.5549 52.7981 36.5919 52.7298 36.5919V36.5928ZM53.718 34.9435C53.6811 34.9435 53.6442 34.9333 53.6119 34.9111C53.5233 34.8519 53.4994 34.7326 53.5584 34.6438C53.6987 34.4329 53.8454 34.2173 53.9967 34.0046C54.0585 33.9176 54.1784 33.8973 54.2652 33.9592C54.3519 34.0212 54.3722 34.1415 54.3104 34.2284C54.1618 34.4384 54.0161 34.6502 53.8786 34.8574C53.8417 34.913 53.7808 34.9435 53.718 34.9435ZM54.8409 33.382C54.7994 33.382 54.7579 33.3691 54.7228 33.3413C54.6389 33.2756 54.6232 33.1544 54.6887 33.0703C54.8428 32.8705 55.0052 32.667 55.1703 32.4644C55.2377 32.382 55.3586 32.37 55.4407 32.4366C55.5228 32.5041 55.5348 32.6253 55.4683 32.7077C55.305 32.9084 55.1454 33.1091 54.9932 33.3062C54.9553 33.3552 54.8981 33.3811 54.8409 33.3811V33.382ZM56.0635 31.8973C56.0183 31.8973 55.9731 31.8816 55.9371 31.8492C55.8568 31.7789 55.8485 31.6577 55.9186 31.5773C56.0838 31.3876 56.2572 31.1934 56.4325 31C56.5036 30.9214 56.6254 30.9158 56.7047 30.9871C56.7832 31.0592 56.7887 31.1804 56.7177 31.26C56.5442 31.4514 56.3726 31.6439 56.2093 31.8316C56.1714 31.8751 56.1179 31.8973 56.0644 31.8973H56.0635ZM57.3626 30.4792C57.3146 30.4792 57.2666 30.4617 57.2288 30.4256C57.1522 30.3516 57.1495 30.2295 57.2233 30.1527C57.3986 29.9695 57.5804 29.7836 57.763 29.5995C57.8378 29.5237 57.9596 29.5237 58.0352 29.5995C58.1109 29.6744 58.1109 29.7965 58.0352 29.8724C57.8544 30.0546 57.6745 30.2396 57.5001 30.4209C57.4623 30.4607 57.4115 30.4802 57.3617 30.4802L57.3626 30.4792ZM58.7226 29.1185C58.6719 29.1185 58.6211 29.0991 58.5842 29.0593C58.5104 28.9825 58.5132 28.8604 58.5898 28.7864C58.7725 28.6106 58.9588 28.433 59.1498 28.2554C59.2273 28.1824 59.3491 28.187 59.422 28.2647C59.4949 28.3424 59.4903 28.4645 59.4128 28.5376C59.2236 28.7142 59.0382 28.8909 58.8564 29.0648C58.8195 29.1009 58.7715 29.1185 58.7236 29.1185H58.7226ZM60.1316 27.8086C60.079 27.8086 60.0264 27.7874 59.9885 27.7448C59.9175 27.6653 59.924 27.5431 60.0033 27.4728C60.1915 27.3026 60.3844 27.1324 60.58 26.9604C60.6603 26.8901 60.7811 26.8984 60.8512 26.9789C60.9214 27.0594 60.9131 27.1805 60.8328 27.2508C60.6381 27.422 60.4471 27.5912 60.2598 27.7605C60.2229 27.7938 60.1768 27.8096 60.1316 27.8096V27.8086ZM61.5802 26.5441C61.5257 26.5441 61.4713 26.521 61.4335 26.4756C61.3652 26.3942 61.3753 26.2731 61.4565 26.2037C61.6503 26.039 61.8468 25.8744 62.047 25.7079C62.1292 25.6403 62.25 25.6514 62.3183 25.7338C62.3857 25.8161 62.3746 25.9373 62.2925 26.0057C62.0932 26.1713 61.8976 26.335 61.7047 26.4988C61.6687 26.5293 61.6244 26.5441 61.5802 26.5441ZM63.0629 25.3193C63.0066 25.3193 62.9513 25.2944 62.9125 25.2472C62.8461 25.1639 62.859 25.0428 62.942 24.9762C63.1404 24.8171 63.3406 24.6561 63.5445 24.4951C63.6276 24.4295 63.7485 24.4433 63.8149 24.5275C63.8804 24.6108 63.8666 24.7329 63.7826 24.7985C63.5796 24.9586 63.3794 25.1186 63.1829 25.2768C63.1469 25.3055 63.1044 25.3193 63.0629 25.3193ZM64.5742 24.1297C64.5161 24.1297 64.4589 24.1038 64.4211 24.0539C64.3565 23.9697 64.3722 23.8485 64.4571 23.7838C64.6582 23.6284 64.863 23.473 65.0697 23.3166C65.1546 23.2528 65.2755 23.2695 65.3391 23.3546C65.4028 23.4397 65.3862 23.5608 65.3013 23.6247C65.0946 23.781 64.8916 23.9355 64.6905 24.09C64.6554 24.1168 64.6148 24.1297 64.5733 24.1297H64.5742ZM66.1105 22.9725C66.0515 22.9725 65.9933 22.9457 65.9555 22.8939C65.8928 22.8079 65.9112 22.6876 65.9961 22.6247C66.2009 22.4739 66.4076 22.3222 66.618 22.1696C66.7038 22.1067 66.8247 22.1261 66.8865 22.2121C66.9492 22.2982 66.9298 22.4193 66.844 22.4813C66.6346 22.633 66.4288 22.7847 66.2249 22.9346C66.1908 22.9596 66.1502 22.9725 66.1114 22.9725H66.1105ZM67.668 21.8449C67.608 21.8449 67.548 21.8162 67.5111 21.7635C67.4493 21.6765 67.4705 21.5563 67.5573 21.4943C67.7649 21.3472 67.9743 21.1992 68.1865 21.0503C68.2733 20.9892 68.3932 21.0105 68.4541 21.0975C68.515 21.1844 68.4938 21.3047 68.407 21.3657C68.1958 21.5137 67.9863 21.6617 67.7796 21.8079C67.7455 21.8319 67.7067 21.843 67.6689 21.843L67.668 21.8449ZM69.2448 20.7441C69.183 20.7441 69.123 20.7145 69.0861 20.6599C69.0262 20.572 69.0483 20.4518 69.136 20.3917C69.3454 20.2473 69.5576 20.103 69.7726 19.9578C69.8603 19.8986 69.9802 19.9217 70.0393 20.0096C70.0983 20.0975 70.0752 20.2177 69.9876 20.2779C69.7735 20.4231 69.5622 20.5665 69.3528 20.7108C69.3196 20.7339 69.2817 20.7441 69.2439 20.7441H69.2448ZM70.8383 19.6683C70.7756 19.6683 70.7147 19.6377 70.6778 19.5822C70.6187 19.4934 70.6436 19.3741 70.7322 19.3149C70.9444 19.1743 71.1585 19.0328 71.3744 18.8903C71.4629 18.832 71.582 18.857 71.641 18.9458C71.6992 19.0346 71.6742 19.1549 71.5857 19.2132C71.3698 19.3547 71.1566 19.4962 70.9453 19.6368C70.913 19.6581 70.8761 19.6692 70.8392 19.6692L70.8383 19.6683ZM72.4474 18.6147C72.3838 18.6147 72.322 18.5832 72.286 18.5258C72.2288 18.4361 72.2546 18.3168 72.3432 18.2594C72.5572 18.1216 72.7732 17.9828 72.9909 17.8432C73.0804 17.7858 73.1994 17.8126 73.2566 17.9024C73.3138 17.9921 73.2871 18.1114 73.1976 18.1688C72.9798 18.3075 72.7648 18.4463 72.5508 18.5832C72.5185 18.6045 72.4825 18.6137 72.4465 18.6137L72.4474 18.6147ZM74.0695 17.5823C74.0058 17.5823 73.9431 17.5499 73.9062 17.4916C73.8499 17.401 73.8767 17.2826 73.9671 17.2262C74.135 17.1207 74.3048 17.0143 74.4755 16.9079C74.5659 16.8515 74.684 16.8793 74.7403 16.9699C74.7966 17.0606 74.7689 17.179 74.6785 17.2354C74.5087 17.3418 74.3389 17.4472 74.1719 17.5527C74.1406 17.5731 74.1046 17.5823 74.0704 17.5823H74.0695Z" fill="#949899"/>
<path d="M77.2881 9.30319L78.972 15.7905L95.9031 0.416321L77.2881 9.30319Z" fill="#00383A"/>
<path d="M78.9717 15.7905L95.9028 0.416321L80.5679 11.6139L78.9717 15.7905Z" fill="#00383A"/>
<path d="M72.0581 4.94902L95.9028 0.416321L77.2878 9.30319L72.0581 4.94902Z" fill="#33A2A7"/>
<path d="M95.9028 0.416321L80.5679 11.6139L86.2405 15.3465L95.9028 0.416321Z" fill="#33A2A7"/>
<path d="M138.113 20.0892L139.194 24.2491L150.05 14.3909L138.113 20.0892Z" fill="#33A2A7"/>
<path d="M139.194 24.2491L150.05 14.3909L140.216 21.5711L139.194 24.2491Z" fill="#00383A"/>
<path d="M134.76 17.2974L150.05 14.3909L138.113 20.0892L134.76 17.2974Z" fill="#99D1D3"/>
<path d="M150.05 14.3909L140.216 21.5711L143.854 23.9642L150.05 14.3909Z" fill="#99D1D3"/>
<path d="M28.3223 9.38276L29.4027 13.5427L40.2589 3.68451L28.3223 9.38276Z" fill="#33A2A7"/>
<path d="M29.4028 13.5427L40.259 3.68451L30.4261 10.8647L29.4028 13.5427Z" fill="#00383A"/>
<path d="M24.9692 6.59099L40.2589 3.68451L28.3222 9.38276L24.9692 6.59099Z" fill="#99D1D3"/>
<path d="M40.2587 3.68451L30.4258 10.8647L34.063 13.2578L40.2587 3.68451Z" fill="#99D1D3"/>
<path d="M171.396 98.664L172.475 102.824L183.331 92.9658L171.396 98.664Z" fill="#99D1D3"/>
<path d="M172.475 102.824L183.331 92.9658L173.498 100.146L172.475 102.824Z" fill="#33A2A7"/>
<path d="M168.042 95.8713L183.331 92.9658L171.395 98.664L168.042 95.8713Z" fill="#CCE8E9"/>
<path d="M183.331 92.9658L173.498 100.146L177.136 102.539L183.331 92.9658Z" fill="#CCE8E9"/>
<path d="M139.539 73.9821L147.229 75.094C147.229 75.094 146.514 67.6354 146.446 63.3571C146.379 59.0779 144.132 57.768 141.13 58.8244C138.129 59.8808 137.992 59.9289 136.581 60.4256C135.171 60.9215 133.633 62.9482 134.703 66.0036C135.772 69.059 136.235 70.3819 136.618 71.4762C137.002 72.5705 138.177 74.1801 139.539 73.9821Z" fill="#FCCAC3"/>
<path d="M139.38 60.1028C139.38 60.1028 137.457 61.9307 137.453 63.3497C137.449 64.7687 139.574 70.2505 139.919 70.8971C140.263 71.5437 141.524 71.6898 141.524 71.6898L144.316 70.6853C144.316 70.6853 143.356 61.2434 139.38 60.1028Z" fill="#F59A8E"/>
<path d="M135.377 54.1307L139.467 52.6913L145.614 70.2505L141.524 71.6898L135.377 54.1307Z" fill="#353640"/>
<path d="M142.366 58.5191C142.366 58.5191 138.942 60.7004 138.744 61.5671C138.547 62.433 141.425 69.9831 142.135 70.4124C142.844 70.8416 146.087 70.8055 146.384 70.0978C146.68 69.3902 146.689 59.3618 142.366 58.5191Z" fill="#FCCAC3"/>
<path d="M135.191 64.7511L134.703 66.0036C134.703 66.0036 133.806 64.4116 134.572 61.7216C135.337 59.0307 135.403 58.1658 136.245 58.0908C137.089 58.0159 140.05 60.162 135.191 64.7511Z" fill="#FCCAC3"/>
<path d="M134.325 43.5538L136.154 48.7785L137.983 54.0031C160.678 48.1689 174.728 53.9827 174.728 53.9827L168.876 37.2645L163.023 20.5462C163.023 20.5462 155.679 33.889 134.325 43.5538Z" fill="#33A2A7"/>
<path d="M163.023 20.5462C163.951 20.2206 167.322 27.4414 170.554 36.6743C173.786 45.9071 175.655 53.6571 174.728 53.9827C173.802 54.3093 170.431 47.0884 167.198 37.8546C163.966 28.6218 162.097 20.8727 163.023 20.5462Z" fill="#00383A"/>
<path d="M127.769 45.8599L131.021 44.7166L134.678 55.1649L131.428 56.3092C129.64 56.9382 127.663 55.9863 127.035 54.1936L125.659 50.264C125.032 48.4713 125.981 46.4899 127.769 45.8599Z" fill="#33A2A7"/>
<path d="M136.791 41.0849L130.231 43.3929C129.44 43.6713 129.019 44.5482 129.297 45.3428L132.942 55.757C133.221 56.5506 134.095 56.9725 134.888 56.6931L141.446 54.386C142.238 54.1067 142.659 53.2297 142.381 52.436L138.736 42.0219C138.457 41.2273 137.582 40.8064 136.791 41.0849Z" fill="#00383A"/>
<path d="M131.045 45.9876C130.966 45.9876 130.891 45.9376 130.863 45.8581C130.828 45.7572 130.881 45.6472 130.981 45.612L137.589 43.2874C137.689 43.2522 137.799 43.3049 137.834 43.4058C137.869 43.5066 137.817 43.6167 137.716 43.6518L131.109 45.9765C131.088 45.9839 131.066 45.9876 131.045 45.9876Z" fill="white"/>
<path d="M132.535 50.2446C132.456 50.2446 132.381 50.1946 132.354 50.1151C132.319 50.0143 132.371 49.9042 132.472 49.869L139.079 47.5444C139.18 47.5092 139.289 47.562 139.324 47.6628C139.36 47.7636 139.307 47.8737 139.206 47.9089L132.599 50.2335C132.578 50.2409 132.557 50.2446 132.535 50.2446Z" fill="white"/>
<path d="M134.026 54.5026C133.946 54.5026 133.872 54.4526 133.844 54.3731C133.809 54.2722 133.861 54.1622 133.962 54.127L140.569 51.8024C140.669 51.7672 140.78 51.82 140.815 51.9208C140.85 52.0216 140.797 52.1317 140.697 52.1669L134.089 54.4915C134.068 54.4989 134.047 54.5026 134.026 54.5026Z" fill="white"/>
<path d="M171.139 24.2602C171.09 24.2602 171.042 24.2417 171.004 24.2056C170.929 24.1316 170.927 24.0095 171.001 23.9327L175.804 18.9949L174.477 17.9089C174.402 17.8478 174.384 17.7396 174.436 17.6573L178.232 11.5381C178.288 11.4474 178.406 11.4197 178.496 11.4761C178.587 11.5326 178.614 11.651 178.558 11.7416L174.852 17.7165L176.21 18.8284C176.251 18.8626 176.277 18.9125 176.28 18.9671C176.283 19.0208 176.263 19.0735 176.226 19.1123L171.275 24.201C171.238 24.2398 171.188 24.2593 171.138 24.2593L171.139 24.2602Z" fill="#00383A"/>
<path d="M175.929 33.5782C175.852 33.5782 175.779 33.531 175.749 33.4533C175.712 33.3534 175.762 33.2424 175.861 33.2044L186.725 29.0834C186.824 29.0455 186.935 29.0963 186.973 29.1953C187.011 29.2952 186.96 29.4062 186.861 29.4441L175.998 33.5652C175.975 33.5735 175.952 33.5782 175.929 33.5782Z" fill="#00383A"/>
<path d="M192.807 47.8256C192.807 47.8256 192.799 47.8256 192.795 47.8256C191.275 47.7322 187.298 47.4908 187.144 47.4889C187.072 47.4889 187.004 47.4528 186.964 47.3918C186.914 47.3159 186.835 47.1938 187.316 46.0394L179.851 47.0458C179.745 47.0597 179.649 46.9857 179.635 46.8802C179.621 46.7748 179.695 46.6777 179.8 46.6638L187.601 45.612C187.671 45.6028 187.739 45.6314 187.78 45.6869C187.822 45.7424 187.831 45.8164 187.803 45.8803C187.61 46.3261 187.404 46.8553 187.335 47.1124C188.273 47.1624 192.313 47.4094 192.819 47.4408C192.925 47.4473 193.005 47.5389 192.999 47.6452C192.993 47.7479 192.908 47.8266 192.807 47.8266V47.8256Z" fill="#00383A"/>
<path d="M26.3614 149.623C26.3614 149.623 24.4839 151.76 23.0879 152.411C21.6919 153.062 11.5803 155.99 11.0512 157.245C10.5214 158.5 14.2763 158.5 14.2763 158.5H21.0177C23.2322 158.5 25.8565 156.013 27.0122 156.362C28.1679 156.71 29.4913 158.035 31.0567 158.035C32.6221 158.035 33.7769 157.686 32.3567 156.873C30.9357 156.06 29.9728 155.107 29.9728 155.107L32.1398 152.504C32.1398 152.504 28.8171 148.786 26.3614 149.623Z" fill="#FCCAC3"/>
<path d="M90.6688 37.4522C90.6688 37.4522 78.1075 36.233 71.5685 42.687C65.0295 49.1401 62.9599 53.7894 68.1647 67.4855C73.3686 81.1808 70.488 83.1983 63.1066 89.9585C55.7243 96.7178 50.9983 110.045 70.4511 113.563C89.9048 117.081 109.669 103.869 111.144 93.5985C112.618 83.3269 104.012 73.3281 101.498 65.8556C98.9849 58.3831 106.121 51.6942 105.083 43.8017C104.044 35.9102 97.2401 33.4523 90.6688 37.4522Z" fill="#353640"/>
<path d="M109.299 86.2814L126.672 102.929L136.509 72.0635L147.494 74.4973C147.494 74.4973 142.896 99.6631 140.852 108.371C138.808 117.081 135.231 123.612 128.589 121.435C121.946 119.258 106.362 107.604 106.362 107.604C106.362 107.604 90.1372 84.2944 109.299 86.2814Z" fill="#FA9941"/>
<path d="M119.028 116.351C112.708 112.35 106.361 107.604 106.361 107.604C106.361 107.604 98.5628 96.3968 100.169 90.187L112.945 94.5115C112.945 94.5115 119.838 109.652 119.294 113.43C119.191 114.15 119.103 115.17 119.028 116.351Z" fill="#F7832A"/>
<path d="M82.7319 81.0439C82.7319 81.0439 73.5309 84.2325 66.3774 87.8179C66.3774 87.8179 62.4173 96.3995 62.5455 105.236C62.6729 114.073 68.2938 158.257 68.2938 158.257H110.193C110.193 158.257 114.154 132.644 115.814 119.452C117.475 106.26 115.943 100.369 109.299 86.2814C109.299 86.2814 102.004 81.7016 94.4738 80.4694C86.9448 79.2372 82.7319 81.0439 82.7319 81.0439Z" fill="#FA9941"/>
<path d="M63.5567 96.4606C62.9505 99.121 62.5012 102.163 62.5455 105.236C62.6728 114.073 68.2938 158.257 68.2938 158.257H83.2716C83.2716 158.257 73.7542 156.141 72.6045 145.127C71.4549 134.113 69.9223 121.69 69.6667 116.951C69.4111 112.213 77.61 105.439 75.3107 98.7787C74.5052 96.4486 70.1391 95.8334 63.5567 96.4606Z" fill="#F7832A"/>
<path d="M67.2101 87.7293C67.2101 87.7293 64.5994 88.5742 57.0464 99.1674C49.4927 109.76 24 149.485 24 149.485L31.22 154.5C31.22 154.5 46.549 136.187 51.4367 129.876C56.3244 123.566 68.0991 110.831 72.32 105.647C76.541 100.463 76.4295 85.4746 67.2101 87.7293Z" fill="#FA9941"/>
<path d="M84.151 71.0812L82.7319 81.0439C82.7319 81.0439 86.6948 89.1676 91.6044 90.2351C96.514 91.3026 94.5616 81.2215 94.5616 81.2215L93.2606 70.0729L84.151 71.0812Z" fill="#F59A8E"/>
<path d="M96.9529 44.6157C101.104 51.6164 110.221 72.8961 98.3092 76.7776C92.3423 78.722 82.6136 76.0653 77.2371 65.7594C71.8607 55.4535 81.928 32.37 96.9529 44.6157Z" fill="#FCCAC3"/>
<path d="M97.3996 40.5428C97.3996 40.5428 97.8296 63.2914 80.9566 69.6418C64.0827 75.9931 68.6878 48.5888 77.8001 41.6806C86.9125 34.7733 97.3996 40.5428 97.3996 40.5428Z" fill="#353640"/>
</g>
<defs>
<clipPath id="clip0_1958_6585">
<rect width="193" height="159" fill="white"/>
</clipPath>
</defs>
</svg>
